<svg xmlns="http://www.w3.org/2000/svg" xmlns:xlink="http://www.w3.org/1999/xlink" width="500" zoomAndPan="magnify" viewBox="0 0 375 374.999991" height="500" preserveAspectRatio="xMidYMid meet" version="1.0"><defs><clipPath id="eac1ecf596"><path d="M 165.402344 137.820312 L 365.054688 137.820312 L 365.054688 337.476562 L 165.402344 337.476562 Z M 165.402344 137.820312 " clip-rule="nonzero"/></clipPath><clipPath id="5bd2b45963"><path d="M 265.230469 137.820312 L 365.054688 214.082031 L 326.925781 337.476562 L 203.53125 337.476562 L 165.402344 214.082031 Z M 265.230469 137.820312 " clip-rule="nonzero"/></clipPath><clipPath id="e834745158"><path d="M 197.667969 173.179688 L 335.246094 173.179688 L 335.246094 310.761719 L 197.667969 310.761719 Z M 197.667969 173.179688 " clip-rule="nonzero"/></clipPath><clipPath id="1cdf180bb9"><path d="M 266.457031 173.179688 L 335.246094 225.730469 L 308.96875 310.761719 L 223.941406 310.761719 L 197.667969 225.730469 Z M 266.457031 173.179688 " clip-rule="nonzero"/></clipPath><clipPath id="591ab7bc5b"><path d="M 231.355469 211.316406 L 301.566406 211.316406 L 301.566406 281.527344 L 231.355469 281.527344 Z M 231.355469 211.316406 " clip-rule="nonzero"/></clipPath><clipPath id="1103c258b2"><path d="M 266.460938 211.316406 L 301.566406 238.132812 L 288.15625 281.527344 L 244.761719 281.527344 L 231.355469 238.132812 Z M 266.460938 211.316406 " clip-rule="nonzero"/></clipPath><clipPath id="f90770d8ac"><path d="M 231.355469 211.316406 L 300.714844 211.316406 L 300.714844 280.675781 L 231.355469 280.675781 Z M 231.355469 211.316406 " clip-rule="nonzero"/></clipPath><clipPath id="365075343d"><path d="M 266.457031 211.316406 L 301.558594 238.128906 L 288.152344 281.519531 L 244.761719 281.519531 L 231.355469 238.128906 Z M 266.457031 211.316406 " clip-rule="nonzero"/></clipPath><clipPath id="d4d52c8568"><path d="M 253.289062 233.867188 L 279.667969 233.867188 L 279.667969 258.972656 L 253.289062 258.972656 Z M 253.289062 233.867188 " clip-rule="nonzero"/></clipPath><clipPath id="4a989bee1e"><path d="M 266.460938 233.867188 L 269.570312 243.457031 L 279.628906 243.457031 L 271.488281 249.382812 L 274.597656 258.972656 L 266.460938 253.046875 L 258.320312 258.972656 L 261.429688 249.382812 L 253.289062 243.457031 L 263.351562 243.457031 Z M 266.460938 233.867188 " clip-rule="nonzero"/></clipPath><clipPath id="26e79d11ae"><path d="M 9.917969 165.875 L 144.789062 165.875 L 144.789062 300.742188 L 9.917969 300.742188 Z M 9.917969 165.875 " clip-rule="nonzero"/></clipPath><clipPath id="3686a2ed59"><path d="M 77.382812 165.875 L 144.847656 217.410156 L 119.078125 300.804688 L 35.6875 300.804688 L 9.917969 217.410156 Z M 77.382812 165.875 " clip-rule="nonzero"/></clipPath><clipPath id="5646c7fa49"><path d="M 41.667969 201.253906 L 111.878906 201.253906 L 111.878906 271.464844 L 41.667969 271.464844 Z M 41.667969 201.253906 " clip-rule="nonzero"/></clipPath><clipPath id="b9399ccc8e"><path d="M 76.773438 201.253906 L 111.878906 228.074219 L 98.472656 271.464844 L 55.078125 271.464844 L 41.667969 228.074219 Z M 76.773438 201.253906 " clip-rule="nonzero"/></clipPath><clipPath id="755793a584"><path d="M 41.667969 201.253906 L 111.03125 201.253906 L 111.03125 270.617188 L 41.667969 270.617188 Z M 41.667969 201.253906 " clip-rule="nonzero"/></clipPath><clipPath id="8d534f1cd8"><path d="M 76.773438 201.253906 L 111.875 228.070312 L 98.464844 271.460938 L 55.078125 271.460938 L 41.667969 228.070312 Z M 76.773438 201.253906 " clip-rule="nonzero"/></clipPath><clipPath id="981127979c"><path d="M 58.09375 221.980469 L 95.457031 221.980469 L 95.457031 259.34375 L 58.09375 259.34375 Z M 58.09375 221.980469 " clip-rule="nonzero"/></clipPath><clipPath id="baff5ecbe4"><path d="M 76.773438 221.980469 C 66.457031 221.980469 58.09375 230.34375 58.09375 240.664062 C 58.09375 250.980469 66.457031 259.34375 76.773438 259.34375 C 87.09375 259.34375 95.457031 250.980469 95.457031 240.664062 C 95.457031 230.34375 87.09375 221.980469 76.773438 221.980469 Z M 76.773438 221.980469 " clip-rule="nonzero"/></clipPath><clipPath id="c51ac5a1cc"><path d="M 75 49 L 238 49 L 238 200 L 75 200 Z M 75 49 " clip-rule="nonzero"/></clipPath><clipPath id="0c238d15a5"><path d="M 263.289062 73.097656 L 212.4375 218.601562 L 66.933594 167.75 L 117.785156 22.246094 Z M 263.289062 73.097656 " clip-rule="nonzero"/></clipPath><clipPath id="f56b803425"><path d="M 263.289062 73.097656 L 212.121094 219.511719 L 65.707031 168.34375 L 116.875 21.925781 Z M 263.289062 73.097656 " clip-rule="nonzero"/></clipPath><clipPath id="a05a147af5"><path d="M 237.707031 146.304688 L 156.195312 199.96875 L 75.476562 140.378906 L 107.101562 49.890625 L 207.367188 53.550781 Z M 237.707031 146.304688 " clip-rule="nonzero"/></clipPath><clipPath id="8df89a184f"><path d="M 111.28125 75.710938 L 201.316406 75.710938 L 201.316406 165.746094 L 111.28125 165.746094 Z M 111.28125 75.710938 " clip-rule="nonzero"/></clipPath><clipPath id="c3210c6713"><path d="M 156.300781 165.746094 L 111.28125 131.355469 L 128.476562 75.710938 L 184.121094 75.710938 L 201.316406 131.355469 Z M 156.300781 165.746094 " clip-rule="nonzero"/></clipPath><clipPath id="78d18509e1"><path d="M 112.6875 77.117188 L 201.316406 77.117188 L 201.316406 165.746094 L 112.6875 165.746094 Z M 112.6875 77.117188 " clip-rule="nonzero"/></clipPath><clipPath id="ca184da28b"><path d="M 156.308594 165.746094 L 111.304688 131.363281 L 128.496094 75.730469 L 184.125 75.730469 L 201.316406 131.363281 Z M 156.308594 165.746094 " clip-rule="nonzero"/></clipPath><clipPath id="7d74518c20"><path d="M 133.046875 95.367188 L 179.640625 95.367188 L 179.640625 130.65625 L 133.046875 130.65625 Z M 133.046875 95.367188 " clip-rule="nonzero"/></clipPath><clipPath id="769d127325"><path d="M 133.046875 130.65625 L 133.046875 104.191406 L 156.320312 95.367188 L 179.59375 104.191406 L 179.59375 130.65625 L 156.320312 121.835938 Z M 133.046875 130.65625 " clip-rule="nonzero"/></clipPath><clipPath id="e7970640b5"><path d="M 132.574219 104.847656 L 180.074219 104.847656 L 180.074219 120.007812 L 132.574219 120.007812 Z M 132.574219 104.847656 " clip-rule="nonzero"/></clipPath><clipPath id="1aa06feb3e"><path d="M 132.574219 120.007812 L 132.574219 111.484375 L 156.3125 104.847656 L 180.054688 111.484375 L 180.054688 120.007812 L 156.3125 113.371094 Z M 132.574219 120.007812 " clip-rule="nonzero"/></clipPath></defs><rect x="-37.5" width="450" fill="#ffffff" y="-37.499999" height="449.999989" fill-opacity="1"/><rect x="-37.5" width="450" fill="#ffffff" y="-37.499999" height="449.999989" fill-opacity="1"/><g clip-path="url(#eac1ecf596)"><g clip-path="url(#5bd2b45963)"><path stroke-linecap="butt" transform="matrix(3.853404, 0, 0, 3.853404, 165.401463, 137.820416)" fill="none" stroke-linejoin="miter" d="M 25.906703 -0.0000267944 L 51.812164 19.790711 L 41.917302 51.812923 L 9.895091 51.812923 L 0.000228502 19.790711 Z M 25.906703 -0.0000267944 " stroke="#87c350" stroke-width="5.449726" stroke-opacity="1" stroke-miterlimit="4"/></g></g><g clip-path="url(#e834745158)"><g clip-path="url(#1cdf180bb9)"><path stroke-linecap="butt" transform="matrix(3.853404, 0, 0, 3.853404, 197.666768, 173.181317)" fill="none" stroke-linejoin="miter" d="M 17.851815 -0.000422984 L 35.703318 13.637071 L 28.884064 35.703598 L 6.818552 35.703598 L 0.000311525 13.637071 Z M 17.851815 -0.000422984 " stroke="#87c350" stroke-width="6.228259" stroke-opacity="1" stroke-miterlimit="4"/></g></g><g clip-path="url(#591ab7bc5b)"><g clip-path="url(#1103c258b2)"><path fill="#87c350" d="M 231.355469 211.316406 L 301.566406 211.316406 L 301.566406 281.527344 L 231.355469 281.527344 Z M 231.355469 211.316406 " fill-opacity="1" fill-rule="nonzero"/></g></g><g clip-path="url(#f90770d8ac)"><g clip-path="url(#365075343d)"><path stroke-linecap="butt" transform="matrix(3.853404, 0, 0, 3.853404, 231.354145, 211.314567)" fill="none" stroke-linejoin="miter" d="M 9.109577 0.000477325 L 18.218811 6.95861 L 14.739745 18.218945 L 3.47941 18.218945 L 0.000343448 6.95861 Z M 9.109577 0.000477325 " stroke="#87c350" stroke-width="7.006791" stroke-opacity="1" stroke-miterlimit="4"/></g></g><g clip-path="url(#d4d52c8568)"><g clip-path="url(#4a989bee1e)"><path fill="#ffffff" d="M 253.289062 233.867188 L 279.671875 233.867188 L 279.671875 258.972656 L 253.289062 258.972656 Z M 253.289062 233.867188 " fill-opacity="1" fill-rule="nonzero"/></g></g><g clip-path="url(#26e79d11ae)"><g clip-path="url(#3686a2ed59)"><path stroke-linecap="butt" transform="matrix(3.853404, 0, 0, 3.853404, 9.918947, 165.873476)" fill="none" stroke-linejoin="miter" d="M 17.5076 0.000395415 L 35.015455 13.374324 L 28.327984 35.016104 L 6.687217 35.016104 L -0.000253879 13.374324 Z M 17.5076 0.000395415 " stroke="#630a06" stroke-width="5.06046" stroke-opacity="1" stroke-miterlimit="4"/></g></g><g clip-path="url(#5646c7fa49)"><g clip-path="url(#b9399ccc8e)"><path fill="#630a06" d="M 41.667969 201.253906 L 111.878906 201.253906 L 111.878906 271.464844 L 41.667969 271.464844 Z M 41.667969 201.253906 " fill-opacity="1" fill-rule="nonzero"/></g></g><g clip-path="url(#755793a584)"><g clip-path="url(#8d534f1cd8)"><path stroke-linecap="butt" transform="matrix(3.853404, 0, 0, 3.853404, 41.669764, 201.255676)" fill="none" stroke-linejoin="miter" d="M 9.109782 -0.000459161 L 18.219016 6.958687 L 14.738936 18.219022 L 3.479614 18.219022 L -0.000465929 6.958687 Z M 9.109782 -0.000459161 " stroke="#630a06" stroke-width="1.557065" stroke-opacity="1" stroke-miterlimit="4"/></g></g><g clip-path="url(#981127979c)"><g clip-path="url(#baff5ecbe4)"><path fill="#ffffff" d="M 58.09375 221.980469 L 95.457031 221.980469 L 95.457031 259.34375 L 58.09375 259.34375 Z M 58.09375 221.980469 " fill-opacity="1" fill-rule="nonzero"/></g></g><g clip-path="url(#c51ac5a1cc)"><g clip-path="url(#0c238d15a5)"><g clip-path="url(#f56b803425)"><g clip-path="url(#a05a147af5)"><path stroke-linecap="butt" transform="matrix(-1.271317, 3.637648, -3.637648, -1.271317, 263.290943, 73.097069)" fill="none" stroke-linejoin="miter" d="M 20.124876 -0.000323731 L 40.250384 15.37385 L 32.563006 40.250322 L 7.68748 40.250231 L -0.00038424 15.373739 Z M 20.124876 -0.000323731 " stroke="#f46503" stroke-width="6.228259" stroke-opacity="1" stroke-miterlimit="4"/></g></g></g></g><g clip-path="url(#8df89a184f)"><g clip-path="url(#c3210c6713)"><path fill="#f46503" d="M 201.316406 165.746094 L 111.28125 165.746094 L 111.28125 75.710938 L 201.316406 75.710938 Z M 201.316406 165.746094 " fill-opacity="1" fill-rule="nonzero"/></g></g><g clip-path="url(#78d18509e1)"><g clip-path="url(#ca184da28b)"><path stroke-linecap="butt" transform="matrix(-3.853404, 0, 0, -3.853404, 201.317101, 165.745388)" fill="none" stroke-linejoin="miter" d="M 11.680193 -0.000183068 L 23.359192 8.922527 L 18.897836 23.359842 L 4.461536 23.359842 L 0.000180264 8.922527 Z M 11.680193 -0.000183068 " stroke="#f46503" stroke-width="1.557065" stroke-opacity="1" stroke-miterlimit="4"/></g></g><g clip-path="url(#7d74518c20)"><g clip-path="url(#769d127325)"><path fill="#ffffff" d="M 133.046875 130.65625 L 133.046875 95.367188 L 179.640625 95.367188 L 179.640625 130.65625 Z M 133.046875 130.65625 " fill-opacity="1" fill-rule="nonzero"/></g></g><g clip-path="url(#e7970640b5)"><g clip-path="url(#1aa06feb3e)"><path fill="#f46503" d="M 132.574219 120.007812 L 132.574219 104.847656 L 180.074219 104.847656 L 180.074219 120.007812 Z M 132.574219 120.007812 " fill-opacity="1" fill-rule="nonzero"/></g></g></svg>