<?xml version="1.0" encoding="UTF-8" standalone="no"?>
<!-- Created with Inkscape (http://www.inkscape.org/) -->

<svg
   xmlns:dc="http://purl.org/dc/elements/1.1/"
   xmlns:cc="http://creativecommons.org/ns#"
   xmlns:rdf="http://www.w3.org/1999/02/22-rdf-syntax-ns#"
   xmlns:svg="http://www.w3.org/2000/svg"
   xmlns="http://www.w3.org/2000/svg"
   xmlns:sodipodi="http://sodipodi.sourceforge.net/DTD/sodipodi-0.dtd"
   xmlns:inkscape="http://www.inkscape.org/namespaces/inkscape"
   width="400mm"
   height="400mm"
   viewBox="0 0 400 400"
   version="1.1"
   id="svg8"
   inkscape:version="0.92.4 (5da689c313, 2019-01-14)"
   sodipodi:docname="LOGO EA-AMARILLO.svg"
   inkscape:export-filename="C:\Users\FLOHECA\Documents\MEGA\Equiweld-Pataye-Floherca\0 Generalidades\z General\Logos Equiweld\LOGO EA-BLANCO.png"
   inkscape:export-xdpi="63.5"
   inkscape:export-ydpi="63.5">
  <defs
     id="defs2" />
  <sodipodi:namedview
     id="base"
     pagecolor="#ffffff"
     bordercolor="#666666"
     borderopacity="1.0"
     inkscape:pageopacity="0.0"
     inkscape:pageshadow="2"
     inkscape:zoom="0.12374369"
     inkscape:cx="-492.67195"
     inkscape:cy="-356.81216"
     inkscape:document-units="mm"
     inkscape:current-layer="layer1"
     showgrid="false"
     inkscape:window-width="1366"
     inkscape:window-height="706"
     inkscape:window-x="-8"
     inkscape:window-y="-8"
     inkscape:window-maximized="1" />
  <metadata
     id="metadata5">
    <rdf:RDF>
      <cc:Work
         rdf:about="">
        <dc:format>image/svg+xml</dc:format>
        <dc:type
           rdf:resource="http://purl.org/dc/dcmitype/StillImage" />
        <dc:title />
      </cc:Work>
    </rdf:RDF>
  </metadata>
  <g
     inkscape:label="Capa 1"
     inkscape:groupmode="layer"
     id="layer1"
     transform="translate(0,103)">
    <path
       style="fill:#f8f116;stroke-width:1.25112557;fill-opacity:1"
       d="m 83.901541,211.55976 -50.440145,-49.158 0.380413,-8.28174 0.380414,-8.28171 58.932942,57.43973 58.932965,57.43974 h -8.87323 -8.87322 z m 215.546929,-4.25953 54.81276,-53.4175 -23.12621,-22.53308 -23.12622,-22.53307 -54.82156,53.40495 -54.82165,53.40497 -31.6886,-30.85734 -31.68861,-30.8574 27.55969,-26.87369 27.5597,-26.87368 L 166.98698,77.636586 143.86617,55.10878 116.28445,81.96228 88.702728,108.81577 61.145615,81.944614 33.588496,55.073432 V 46.433111 37.792775 L 83.9769,-11.291782 134.36531,-60.376336 h 8.86106 8.86107 L 97.274695,-6.9588251 42.461956,46.458685 l 23.12362,22.530555 23.123619,22.530554 27.268425,-26.54846 27.26842,-26.54846 31.66681,30.873155 31.66682,30.873151 -27.21262,26.53621 -27.21261,26.53618 23.06748,22.59541 23.06746,22.5954 54.21558,-52.83577 c 29.81855,-29.05967 54.79341,-52.835785 55.49962,-52.835785 0.70627,0 13.39941,11.814215 28.20707,26.253815 l 26.92301,26.25379 v 8.64011 8.64011 l -50.3884,49.08454 -50.38838,49.08459 h -8.86108 -8.86107 z M 193.9202,50.766595 162.25332,19.893333 180.30866,2.3010671 l 18.0553,-17.5922621 31.6926,30.879712 31.69258,30.879707 -18.08099,17.585815 -18.08099,17.585813 z m 41.84256,4.934746 8.81476,-8.655004 -22.78117,-22.222636 C 209.26665,12.601249 198.62497,2.7414483 198.14806,2.9130265 c -0.47714,0.1715829 -4.81262,4.0315621 -9.63494,8.5777475 l -8.76786,8.265783 22.29987,22.101658 c 12.26496,12.15591 22.88554,22.19087 23.60138,22.299899 0.71579,0.109061 5.26814,-3.696521 10.11625,-8.456773 z M 303.56283,-2.9498947 244.63501,-60.376336 h 8.88861 8.88863 l 50.36122,49.126242 50.36119,49.126236 v 8.300197 c 0,4.565108 -0.14473,8.300196 -0.32192,8.300196 -0.17726,0 -26.83953,-25.841891 -59.24985,-57.4264297 z"
       id="path826"
       inkscape:connector-curvature="0" />
  </g>
</svg>
